<mxfile host="Electron" modified="2024-10-21T14:22:25.208Z" agent="Mozilla/5.0 (Windows NT 10.0; Win64; x64) AppleWebKit/537.36 (KHTML, like Gecko) draw.io/22.1.11 Chrome/114.0.5735.289 Electron/25.9.8 Safari/537.36" etag="Bz_o-VQZqAf55BjxsPxd" version="22.1.11" type="device">
  <diagram name="Seite-1" id="FvU47FztZcyPFTcKkgmX">
    <mxGraphModel dx="560" dy="328" grid="1" gridSize="10" guides="1" tooltips="1" connect="1" arrows="1" fold="1" page="1" pageScale="1" pageWidth="827" pageHeight="1169" math="0" shadow="0">
      <root>
        <mxCell id="0" />
        <mxCell id="1" parent="0" />
        <mxCell id="8kljisE9YNVIrog83q0K-3" style="edgeStyle=orthogonalEdgeStyle;rounded=0;orthogonalLoop=1;jettySize=auto;html=1;exitX=1;exitY=0.5;exitDx=0;exitDy=0;" edge="1" parent="1" source="8kljisE9YNVIrog83q0K-2">
          <mxGeometry relative="1" as="geometry">
            <mxPoint x="480" y="200" as="targetPoint" />
          </mxGeometry>
        </mxCell>
        <mxCell id="8kljisE9YNVIrog83q0K-5" value="PWM_pin_o" style="edgeLabel;html=1;align=center;verticalAlign=middle;resizable=0;points=[];" vertex="1" connectable="0" parent="8kljisE9YNVIrog83q0K-3">
          <mxGeometry x="0.026" y="-1" relative="1" as="geometry">
            <mxPoint x="69" y="-2" as="offset" />
          </mxGeometry>
        </mxCell>
        <mxCell id="8kljisE9YNVIrog83q0K-9" style="edgeStyle=orthogonalEdgeStyle;rounded=0;orthogonalLoop=1;jettySize=auto;html=1;exitX=0.75;exitY=1;exitDx=0;exitDy=0;startArrow=classic;startFill=1;endArrow=none;endFill=0;" edge="1" parent="1" source="8kljisE9YNVIrog83q0K-2">
          <mxGeometry relative="1" as="geometry">
            <mxPoint x="200" y="360" as="targetPoint" />
            <Array as="points">
              <mxPoint x="370" y="360" />
            </Array>
          </mxGeometry>
        </mxCell>
        <mxCell id="8kljisE9YNVIrog83q0K-10" style="edgeStyle=orthogonalEdgeStyle;rounded=0;orthogonalLoop=1;jettySize=auto;html=1;exitX=0.25;exitY=1;exitDx=0;exitDy=0;startArrow=classic;startFill=1;endArrow=none;endFill=0;" edge="1" parent="1" source="8kljisE9YNVIrog83q0K-2">
          <mxGeometry relative="1" as="geometry">
            <mxPoint x="200" y="320" as="targetPoint" />
            <Array as="points">
              <mxPoint x="310" y="320" />
            </Array>
          </mxGeometry>
        </mxCell>
        <mxCell id="8kljisE9YNVIrog83q0K-11" style="edgeStyle=orthogonalEdgeStyle;rounded=0;orthogonalLoop=1;jettySize=auto;html=1;exitX=0;exitY=0.25;exitDx=0;exitDy=0;startArrow=classic;startFill=1;endArrow=none;endFill=0;" edge="1" parent="1" source="8kljisE9YNVIrog83q0K-2">
          <mxGeometry relative="1" as="geometry">
            <mxPoint x="200" y="160" as="targetPoint" />
          </mxGeometry>
        </mxCell>
        <mxCell id="8kljisE9YNVIrog83q0K-13" style="edgeStyle=orthogonalEdgeStyle;rounded=0;orthogonalLoop=1;jettySize=auto;html=1;exitX=0;exitY=0.75;exitDx=0;exitDy=0;startArrow=classic;startFill=1;endArrow=none;endFill=0;" edge="1" parent="1" source="8kljisE9YNVIrog83q0K-2">
          <mxGeometry relative="1" as="geometry">
            <mxPoint x="200" y="240" as="targetPoint" />
          </mxGeometry>
        </mxCell>
        <mxCell id="8kljisE9YNVIrog83q0K-2" value="PWM" style="whiteSpace=wrap;html=1;" vertex="1" parent="1">
          <mxGeometry x="280" y="120" width="120" height="160" as="geometry" />
        </mxCell>
        <mxCell id="8kljisE9YNVIrog83q0K-7" value="" style="triangle;whiteSpace=wrap;html=1;rotation=-90;" vertex="1" parent="1">
          <mxGeometry x="360" y="260" width="20" height="20" as="geometry" />
        </mxCell>
      </root>
    </mxGraphModel>
  </diagram>
</mxfile>
